<svg width="198" height="34" viewBox="0 0 198 34" fill="none" xmlns="http://www.w3.org/2000/svg">
<path d="M66.006 23.954C65.449 24.109 64.756 24.19 63.938 24.19C63.333 24.19 62.807 24.116 62.362 23.973C61.919 23.827 61.542 23.58 61.245 23.238C60.944 22.89 60.72 22.424 60.577 21.835C60.432 21.245 60.36 20.491 60.36 19.58V10.443H55.614V19.714C55.614 21.56 55.846 23.042 56.319 24.156C56.782 25.269 57.413 26.116 58.204 26.694C58.997 27.273 59.913 27.651 60.962 27.829C62.007 28.01 63.099 28.1 64.235 28.1C65.505 28.1 66.727 27.983 67.893 27.746C69.059 27.514 70.002 27.272 70.715 27.026V10.443H66.006V23.954Z" fill="white"/>
<path d="M42.867 12.178C42.244 11.455 41.502 10.911 40.646 10.556C39.785 10.202 38.859 10.022 37.855 10.022C36.855 10.022 35.962 10.219 35.183 10.607C34.402 10.999 33.845 11.494 33.513 12.095V3.27304C33.331 3.24304 33.152 3.21904 32.972 3.19604H29.337C29.16 3.22004 28.98 3.24304 28.801 3.27304V27.13C29.221 27.286 29.69 27.423 30.203 27.545C30.716 27.667 31.25 27.771 31.808 27.849C32.363 27.923 32.917 27.987 33.462 28.035C34.007 28.076 34.526 28.101 35.013 28.101C36.554 28.101 37.931 27.882 39.156 27.447C40.383 27.01 41.422 26.396 42.267 25.592C43.113 24.794 43.757 23.818 44.203 22.668C44.65 21.523 44.875 20.226 44.875 18.778C44.875 17.284 44.695 15.993 44.336 14.902C43.979 13.811 43.492 12.904 42.867 12.178ZM38.689 22.888C37.869 23.736 36.732 24.158 35.283 24.158C34.972 24.158 34.666 24.148 34.363 24.124C34.06 24.104 33.781 24.047 33.513 23.955V17.675C33.513 16.405 33.794 15.478 34.363 14.885C34.934 14.295 35.658 14 36.555 14C37.78 14 38.647 14.417 39.157 15.252C39.673 16.089 39.928 17.308 39.928 18.91C39.928 20.715 39.518 22.041 38.689 22.888Z" fill="white"/>
<path d="M87.604 15.019C87.268 14.005 86.774 13.133 86.118 12.397C85.462 11.661 84.663 11.083 83.725 10.66C82.789 10.234 81.721 10.022 80.522 10.022C79.139 10.022 77.93 10.262 76.895 10.744C75.86 11.223 74.989 11.875 74.288 12.699C73.587 13.522 73.058 14.49 72.7 15.606C72.345 16.717 72.163 17.908 72.163 19.18C72.163 20.47 72.341 21.662 72.688 22.755C73.032 23.844 73.567 24.785 74.288 25.575C75.011 26.365 75.95 26.986 77.097 27.432C78.242 27.875 79.618 28.101 81.222 28.101C83.406 28.101 85.365 27.766 87.105 27.096V27.09C87.082 27.096 87.066 27.104 87.066 27.104L86.812 26.169L86.173 23.509L86.159 23.491C85.452 23.753 84.698 23.962 83.913 24.105C83.122 24.252 82.347 24.322 81.591 24.322C80.21 24.322 79.095 24.022 78.249 23.42C77.401 22.819 76.935 21.85 76.845 20.514H87.935C87.98 20.272 88.023 19.94 88.054 19.529C88.091 19.116 88.107 18.698 88.107 18.276C88.105 17.117 87.934 16.029 87.604 15.019ZM76.877 17.207C76.986 16.069 77.334 15.191 77.91 14.566C78.49 13.941 79.338 13.632 80.455 13.632C81.432 13.632 82.199 13.959 82.746 14.616C83.289 15.272 83.58 16.139 83.623 17.206H76.877V17.207Z" fill="white"/>
<path d="M54.543 23.992L54.533 23.954C54.334 24.002 54.133 24.035 53.924 24.053C53.713 24.077 53.518 24.09 53.342 24.09C52.938 24.09 52.606 24.046 52.336 23.954C52.072 23.868 51.852 23.705 51.688 23.472C51.516 23.239 51.397 22.909 51.317 22.486C51.243 22.065 51.202 21.507 51.202 20.817V3.27305C51.175 3.26505 51.149 3.26505 51.122 3.26205H46.567C46.542 3.26505 46.514 3.26505 46.491 3.27305V21.85C46.491 23.987 47.009 25.53 48.046 26.479C49.079 27.423 50.456 27.897 52.171 27.897C52.593 27.897 53.058 27.876 53.558 27.83C54.06 27.787 54.488 27.709 54.845 27.597C54.853 27.572 54.855 27.546 54.861 27.526L54.767 26.699L54.543 23.992Z" fill="white"/>
<path d="M17.443 7.14C17.697 8.072 17.892 8.83 18.019 9.399C18.042 9.508 18.128 10.369 18.111 10.67V10.698C18.099 11.972 16.849 13.71 14.578 15.619C15.254 15.536 15.932 15.496 16.605 15.496C19.226 15.496 21.21 16.12 22.164 16.421C22.211 16.437 22.256 16.448 22.295 16.461C23.391 15.093 24.1 13.719 24.408 12.371C24.428 10.454 23.494 9.025 21.635 8.127C20.182 7.424 18.482 7.205 17.443 7.14Z" fill="white"/>
<path d="M24.535 13.447C24.125 14.577 23.457 15.714 22.537 16.843C18.017 22.395 8.97601 26.125 3.36701 26.125C2.97101 26.125 2.58601 26.105 2.22401 26.07C4.25101 30.792 5.61301 32.856 5.84701 33.201C6.05601 33.271 6.83501 33.499 8.17301 33.499C9.68501 33.499 12.214 33.201 15.669 31.776C18.724 30.514 21.148 28.82 22.866 26.741C24.346 24.949 24.858 23.401 25.009 22.815C25.052 22.656 25.193 22.064 25.198 21.967C25.197 19.118 24.76 15.241 24.535 13.447Z" fill="white"/>
<path d="M17.684 10.645C17.7 10.391 17.618 9.572 17.602 9.491C17.463 8.874 17.245 8.025 16.952 6.969C16.538 5.486 16.071 3.94 15.827 3.13C15.655 3.5 15.442 3.876 15.182 4.272C15.11 4.381 15.034 4.499 14.948 4.617C14.903 4.681 14.854 4.745 14.805 4.81C14.707 4.939 14.604 5.07 14.494 5.202C14.473 5.227 14.453 5.253 14.431 5.279C14.402 5.316 14.372 5.354 14.341 5.389C14.31 5.426 14.277 5.462 14.243 5.498C14.218 5.523 14.196 5.548 14.173 5.574C12.759 7.163 10.669 8.728 8.273 9.992C8.253 10.039 6.683 10.83 6.683 10.83C6.591 10.87 4.648 11.697 3.865 11.9C3.711 11.94 3.502 12.004 3.26 12.077C2.408 12.335 1.244 12.688 0.524002 12.688C0.465002 12.688 0.409002 12.686 0.358002 12.68C1.311 15.225 2.553 17.534 3.436 18.895C3.567 18.986 4.219 19.05 4.463 19.05C4.623 19.05 5.914 19.011 6.66 18.855C6.836 18.816 6.982 18.787 7.113 18.759C7.64 18.655 7.906 18.6 8.847 18.237C9.919 17.826 10.915 17.374 11.818 16.896C12.236 16.674 13.199 16.114 13.697 15.771C13.775 15.717 13.845 15.667 13.892 15.628C16.29 13.695 17.671 11.897 17.683 10.693C17.684 10.673 17.684 10.657 17.684 10.645Z" fill="white"/>
<path d="M0.523008 12.258C1.17901 12.258 2.35501 11.902 3.13401 11.667C3.38201 11.592 3.59701 11.527 3.75501 11.485C4.50901 11.29 6.48501 10.447 6.50501 10.44L6.98901 10.203L6.81501 10.215C6.37201 10.244 5.76401 10.366 5.52401 10.419C5.43601 10.436 5.38301 10.447 5.38301 10.447C5.36701 10.453 5.35201 10.454 5.33601 10.454C5.32401 10.454 5.31301 10.453 5.29901 10.452C5.28901 10.453 5.27801 10.454 5.26601 10.454C5.19201 10.454 5.12001 10.416 5.08001 10.348L4.55501 9.441C2.14901 10.461 0.237008 11.617 0.190008 12.087C0.186008 12.126 0.188008 12.172 0.194008 12.196C0.227008 12.224 0.322008 12.258 0.523008 12.258Z" fill="white"/>
<path d="M5.44901 9.996C5.68601 9.945 6.31601 9.82 6.78701 9.787L7.35901 9.749C7.59801 9.724 7.77701 9.707 7.90401 9.7C10.328 8.444 12.439 6.878 13.851 5.289L13.871 5.268C13.918 5.211 13.965 5.158 14.012 5.104C14.067 5.043 14.117 4.985 14.166 4.925C14.268 4.802 14.369 4.676 14.465 4.55C14.51 4.489 14.555 4.426 14.6 4.367C14.67 4.268 14.737 4.169 14.799 4.073L14.824 4.033C15.279 3.326 15.51 2.743 15.58 2.546C14.809 0.768 11.756 0.5 9.98601 0.5C8.82401 0.5 7.83201 0.607 7.20101 0.698C3.84201 1.181 1.80501 2.126 1.21301 2.432L4.82201 9.051L5.37901 10.007L5.44901 9.996Z" fill="white"/>
<path d="M105.259 27.967L102.223 18.001C101.937 17.099 101.684 16.219 101.464 15.361C101.266 14.481 101.112 13.799 101.002 13.315H100.87C100.782 13.799 100.639 14.481 100.441 15.361C100.243 16.219 99.99 17.11 99.682 18.034L96.514 27.967H93.214L88.363 10.279H91.366L93.808 19.717C94.05 20.663 94.281 21.62 94.501 22.588C94.721 23.556 94.875 24.359 94.963 24.997H95.095C95.183 24.623 95.282 24.161 95.392 23.611C95.524 23.061 95.667 22.489 95.821 21.895C95.975 21.279 96.129 20.729 96.283 20.245L99.418 10.279H102.586L105.622 20.245C105.864 20.993 106.095 21.807 106.315 22.687C106.557 23.567 106.722 24.326 106.81 24.964H106.942C107.008 24.414 107.151 23.655 107.371 22.687C107.613 21.719 107.866 20.729 108.13 19.717L110.605 10.279H113.575L108.658 27.967H105.259Z" fill="white"/>
<path d="M120.578 9.982C122.096 9.982 123.394 10.312 124.472 10.972C125.572 11.632 126.408 12.567 126.98 13.777C127.574 14.965 127.871 16.362 127.871 17.968V19.717H115.76C115.804 21.719 116.31 23.248 117.278 24.304C118.268 25.338 119.643 25.855 121.403 25.855C122.525 25.855 123.515 25.756 124.373 25.558C125.253 25.338 126.155 25.03 127.079 24.634V27.175C126.177 27.571 125.286 27.857 124.406 28.033C123.526 28.231 122.481 28.33 121.271 28.33C119.599 28.33 118.114 27.989 116.816 27.307C115.54 26.625 114.539 25.613 113.813 24.271C113.109 22.907 112.757 21.246 112.757 19.288C112.757 17.352 113.076 15.691 113.714 14.305C114.374 12.919 115.287 11.852 116.453 11.104C117.641 10.356 119.016 9.982 120.578 9.982ZM120.545 12.358C119.159 12.358 118.059 12.809 117.245 13.711C116.453 14.591 115.98 15.823 115.826 17.407H124.835C124.813 15.911 124.461 14.701 123.779 13.777C123.097 12.831 122.019 12.358 120.545 12.358Z" fill="white"/>
<path d="M136.073 10.015C138.229 10.015 139.824 10.488 140.858 11.434C141.892 12.38 142.409 13.887 142.409 15.955V28H140.297L139.736 25.492H139.604C138.834 26.46 138.02 27.175 137.162 27.637C136.326 28.099 135.16 28.33 133.664 28.33C132.058 28.33 130.727 27.912 129.671 27.076C128.615 26.218 128.087 24.887 128.087 23.083C128.087 21.323 128.78 19.97 130.166 19.024C131.552 18.056 133.686 17.528 136.568 17.44L139.571 17.341V16.285C139.571 14.811 139.252 13.788 138.614 13.216C137.976 12.644 137.074 12.358 135.908 12.358C134.984 12.358 134.104 12.501 133.268 12.787C132.432 13.051 131.651 13.359 130.925 13.711L130.034 11.533C130.804 11.115 131.717 10.763 132.773 10.477C133.829 10.169 134.929 10.015 136.073 10.015ZM139.538 19.354L136.931 19.453C134.731 19.541 133.202 19.893 132.344 20.509C131.508 21.125 131.09 21.994 131.09 23.116C131.09 24.106 131.387 24.832 131.981 25.294C132.597 25.756 133.378 25.987 134.324 25.987C135.82 25.987 137.063 25.58 138.053 24.766C139.043 23.93 139.538 22.654 139.538 20.938V19.354Z" fill="white"/>
<path d="M150.779 25.954C151.219 25.954 151.67 25.921 152.132 25.855C152.594 25.767 152.968 25.679 153.254 25.591V27.802C152.946 27.956 152.506 28.077 151.934 28.165C151.362 28.275 150.812 28.33 150.284 28.33C149.36 28.33 148.502 28.176 147.71 27.868C146.94 27.538 146.313 26.977 145.829 26.185C145.345 25.393 145.103 24.282 145.103 22.852V12.556H142.595V11.17L145.136 10.015L146.291 6.253H148.007V10.312H153.122V12.556H148.007V22.786C148.007 23.864 148.26 24.667 148.766 25.195C149.294 25.701 149.965 25.954 150.779 25.954Z" fill="white"/>
<path d="M156.7 2.92V10.279C156.7 11.159 156.645 11.984 156.535 12.754H156.733C157.305 11.852 158.075 11.17 159.043 10.708C160.033 10.246 161.1 10.015 162.244 10.015C164.4 10.015 166.017 10.532 167.095 11.566C168.173 12.578 168.712 14.217 168.712 16.483V28H165.841V16.681C165.841 13.843 164.521 12.424 161.881 12.424C159.901 12.424 158.537 12.985 157.789 14.107C157.063 15.207 156.7 16.791 156.7 18.859V28H153.796V2.92H156.7Z" fill="white"/>
<path d="M178.027 9.982C179.545 9.982 180.843 10.312 181.921 10.972C183.021 11.632 183.857 12.567 184.429 13.777C185.023 14.965 185.32 16.362 185.32 17.968V19.717H173.209C173.253 21.719 173.759 23.248 174.727 24.304C175.717 25.338 177.092 25.855 178.852 25.855C179.974 25.855 180.964 25.756 181.822 25.558C182.702 25.338 183.604 25.03 184.528 24.634V27.175C183.626 27.571 182.735 27.857 181.855 28.033C180.975 28.231 179.93 28.33 178.72 28.33C177.048 28.33 175.563 27.989 174.265 27.307C172.989 26.625 171.988 25.613 171.262 24.271C170.558 22.907 170.206 21.246 170.206 19.288C170.206 17.352 170.525 15.691 171.163 14.305C171.823 12.919 172.736 11.852 173.902 11.104C175.09 10.356 176.465 9.982 178.027 9.982ZM177.994 12.358C176.608 12.358 175.508 12.809 174.694 13.711C173.902 14.591 173.429 15.823 173.275 17.407H182.284C182.262 15.911 181.91 14.701 181.228 13.777C180.546 12.831 179.468 12.358 177.994 12.358Z" fill="white"/>
<path d="M195.073 9.982C195.403 9.982 195.755 10.004 196.129 10.048C196.525 10.07 196.866 10.114 197.152 10.18L196.789 12.853C196.503 12.787 196.184 12.732 195.832 12.688C195.502 12.644 195.183 12.622 194.875 12.622C193.973 12.622 193.126 12.875 192.334 13.381C191.542 13.865 190.904 14.558 190.42 15.46C189.958 16.34 189.727 17.374 189.727 18.562V28H186.823V10.312H189.199L189.529 13.546H189.661C190.233 12.578 190.97 11.742 191.872 11.038C192.774 10.334 193.841 9.982 195.073 9.982Z" fill="white"/>
</svg>
