<svg width="19" height="18" viewBox="0 0 19 18" fill="none" xmlns="http://www.w3.org/2000/svg">
<path d="M13.3121 11H12.5221L12.2421 10.73C13.2221 9.59 13.8121 8.11 13.8121 6.5C13.8121 2.91 10.9021 0 7.31207 0C3.72207 0 0.812073 2.91 0.812073 6.5C0.812073 10.09 3.72207 13 7.31207 13C8.92207 13 10.4021 12.41 11.5421 11.43L11.8121 11.71V12.5L16.8121 17.49L18.3021 16L13.3121 11V11ZM7.31207 11C4.82207 11 2.81207 8.99 2.81207 6.5C2.81207 4.01 4.82207 2 7.31207 2C9.80207 2 11.8121 4.01 11.8121 6.5C11.8121 8.99 9.80207 11 7.31207 11Z" fill="black" fill-opacity="0.54"/>
</svg>
